<?xml version="1.0" encoding="UTF-8"?>
<svg id="Layer_1" data-name="Layer 1" xmlns="http://www.w3.org/2000/svg" xmlns:xlink="http://www.w3.org/1999/xlink" viewBox="0 0 274.89 161.33">
  <defs>
    <style>
      .cls-1 {
        fill: #231f20;
      }

      .cls-2 {
        fill: #faa61a;
      }

      .cls-3 {
        fill: url(#linear-gradient);
      }

      .cls-4 {
        fill: #14afdf;
      }

      .cls-5 {
        fill: #6fbe44;
      }
    </style>
    <linearGradient id="linear-gradient" x1=".16" y1="153.67" x2="274.82" y2="153.67" gradientUnits="userSpaceOnUse">
      <stop offset=".1" stop-color="#faa61a"/>
      <stop offset=".45" stop-color="#6fbe44"/>
      <stop offset=".55" stop-color="#5fb87a"/>
      <stop offset=".9" stop-color="#14afdf"/>
    </linearGradient>
  </defs>
  <g>
    <polyline class="cls-2" points="76.85 0 76.85 56.92 28.67 0 0 0 0 94.37 28.67 94.37 28.67 37.45 76.85 94.37 105.52 47.18 76.85 0"/>
    <path class="cls-4" d="M157.84,94.37l-19.21-31.26-19.21,31.26h-33.99l28.67-47.18L85.42,0h33.7l19.21,31.26L157.84,0h33.7l-28.67,47.18,28.67,47.18h-33.7Z"/>
    <path class="cls-5" d="M241.2,0h-40.79l-28.67,47.18,28.67,47.18h0v-20.94h48.18c20.1,0,26.31-16.22,26.31-30.08v-11.21c0-18.28-6.5-32.14-33.7-32.14M248.29,38.04c0,5.6-2.66,12.09-9.16,12.09h-38.43v-26.84h35.77c8.57,0,11.82,3.54,11.82,10.03v4.72Z"/>
  </g>
  <g>
    <g>
      <path class="cls-1" d="M2.86,159.01h4.44v2.14H.16v-13.47h2.7v11.33Z"/>
      <path class="cls-1" d="M9.21,148.73c-.32-.3-.47-.68-.47-1.13s.16-.83.47-1.13.71-.45,1.19-.45.87.15,1.19.45.47.68.47,1.13-.16.83-.47,1.13c-.32.3-.71.45-1.19.45s-.87-.15-1.19-.45ZM11.72,150.46v10.69h-2.7v-10.69h2.7Z"/>
      <path class="cls-1" d="M23.4,151.51c.78.8,1.18,1.93,1.18,3.37v6.27h-2.7v-5.91c0-.85-.21-1.5-.64-1.96-.42-.46-1-.69-1.74-.69s-1.34.23-1.77.69c-.43.46-.65,1.11-.65,1.96v5.91h-2.7v-10.69h2.7v1.33c.36-.46.82-.83,1.38-1.09.56-.26,1.17-.4,1.84-.4,1.27,0,2.3.4,3.09,1.21Z"/>
      <path class="cls-1" d="M37.24,150.46v10.69h-2.72v-1.35c-.35.46-.8.83-1.36,1.09-.56.26-1.17.4-1.82.4-.84,0-1.58-.18-2.22-.53s-1.15-.88-1.52-1.56c-.37-.69-.55-1.51-.55-2.46v-6.27h2.7v5.89c0,.85.21,1.5.64,1.96.42.46,1,.69,1.74.69s1.33-.23,1.76-.69c.42-.46.64-1.11.64-1.96v-5.89h2.72Z"/>
      <path class="cls-1" d="M45.82,161.15l-2.2-3.32-1.95,3.32h-2.9l3.49-5.37-3.53-5.33h3.05l2.18,3.3,1.97-3.3h2.9l-3.51,5.33,3.55,5.37h-3.05Z"/>
      <path class="cls-1" d="M62.53,161.15l-4.9-6v6h-2.7v-13.47h2.7v6.04l4.9-6.04h3.26l-5.56,6.68,5.71,6.79h-3.42Z"/>
      <path class="cls-1" d="M77.59,156.61h-7.82c.06.77.33,1.38.81,1.81s1.06.66,1.76.66c1,0,1.72-.43,2.14-1.29h2.92c-.31,1.03-.9,1.88-1.78,2.54-.88.66-1.95.99-3.22.99-1.03,0-1.95-.23-2.77-.69-.82-.46-1.45-1.1-1.91-1.94-.46-.84-.69-1.8-.69-2.9s.22-2.08.68-2.92c.45-.84,1.08-1.48,1.89-1.93.81-.45,1.74-.68,2.8-.68s1.93.22,2.73.66c.8.44,1.43,1.06,1.87,1.86.44.8.67,1.73.67,2.77,0,.39-.03.73-.08,1.04ZM74.87,154.8c-.01-.69-.26-1.25-.75-1.67-.49-.42-1.09-.63-1.8-.63-.67,0-1.23.2-1.69.61-.46.41-.74.97-.84,1.69h5.08Z"/>
      <path class="cls-1" d="M83.7,150.79c.56-.32,1.2-.48,1.92-.48v2.84h-.71c-.85,0-1.49.2-1.92.6s-.65,1.09-.65,2.08v5.33h-2.7v-10.69h2.7v1.66c.35-.57.8-1.01,1.36-1.33Z"/>
      <path class="cls-1" d="M96.45,151.51c.78.8,1.18,1.93,1.18,3.37v6.27h-2.7v-5.91c0-.85-.21-1.5-.64-1.96-.42-.46-1-.69-1.74-.69s-1.34.23-1.77.69c-.43.46-.65,1.11-.65,1.96v5.91h-2.7v-10.69h2.7v1.33c.36-.46.82-.83,1.38-1.09.56-.26,1.17-.4,1.84-.4,1.27,0,2.3.4,3.09,1.21Z"/>
      <path class="cls-1" d="M110.06,156.61h-7.82c.06.77.33,1.38.81,1.81s1.06.66,1.76.66c1,0,1.72-.43,2.14-1.29h2.92c-.31,1.03-.9,1.88-1.78,2.54-.88.66-1.95.99-3.22.99-1.03,0-1.95-.23-2.77-.69-.82-.46-1.45-1.1-1.91-1.94-.46-.84-.69-1.8-.69-2.9s.22-2.08.68-2.92c.45-.84,1.08-1.48,1.89-1.93.81-.45,1.74-.68,2.8-.68s1.93.22,2.73.66c.8.44,1.43,1.06,1.87,1.86.44.8.67,1.73.67,2.77,0,.39-.03.73-.08,1.04ZM107.34,154.8c-.01-.69-.26-1.25-.75-1.67-.49-.42-1.09-.63-1.8-.63-.67,0-1.23.2-1.69.61-.46.41-.74.97-.84,1.69h5.08Z"/>
      <path class="cls-1" d="M114.81,146.87v14.29h-2.7v-14.29h2.7Z"/>
      <path class="cls-1" d="M124.18,160.8c-.75-.32-1.35-.78-1.79-1.39s-.66-1.32-.68-2.14h2.89c.04.55.24.99.59,1.31s.84.48,1.46.48,1.13-.15,1.49-.45c.36-.3.54-.7.54-1.19,0-.4-.12-.73-.37-.98-.24-.26-.55-.46-.92-.61-.37-.15-.87-.31-1.52-.49-.88-.26-1.59-.51-2.13-.76-.55-.25-1.02-.63-1.41-1.14s-.59-1.19-.59-2.04c0-.8.2-1.49.6-2.08.4-.59.96-1.05,1.68-1.36s1.54-.47,2.47-.47c1.39,0,2.52.34,3.39,1.01.87.68,1.35,1.62,1.44,2.83h-2.97c-.03-.46-.22-.85-.59-1.15-.37-.3-.85-.45-1.46-.45-.53,0-.95.14-1.26.41-.32.27-.47.66-.47,1.18,0,.36.12.66.36.9s.54.43.89.58.85.32,1.5.51c.88.26,1.59.52,2.14.77s1.03.64,1.43,1.16c.4.51.6,1.19.6,2.03,0,.72-.19,1.39-.56,2.01-.37.62-.92,1.11-1.64,1.48s-1.58.55-2.57.55-1.79-.16-2.54-.48Z"/>
      <path class="cls-1" d="M143.92,150.46v10.69h-2.72v-1.35c-.35.46-.8.83-1.36,1.09-.56.26-1.17.4-1.83.4-.84,0-1.58-.18-2.22-.53s-1.15-.88-1.52-1.56c-.37-.69-.55-1.51-.55-2.46v-6.27h2.7v5.89c0,.85.21,1.5.64,1.96.42.46,1,.69,1.74.69s1.33-.23,1.76-.69c.42-.46.64-1.11.64-1.96v-5.89h2.72Z"/>
      <path class="cls-1" d="M163.04,151.51c.8.8,1.21,1.93,1.21,3.37v6.27h-2.7v-5.91c0-.84-.21-1.48-.64-1.92-.42-.44-1-.67-1.74-.67s-1.32.22-1.75.67c-.43.44-.65,1.08-.65,1.92v5.91h-2.7v-5.91c0-.84-.21-1.48-.64-1.92-.42-.44-1-.67-1.74-.67s-1.33.22-1.77.67c-.43.44-.65,1.08-.65,1.92v5.91h-2.7v-10.69h2.7v1.29c.35-.45.79-.8,1.34-1.06.55-.26,1.15-.39,1.8-.39.84,0,1.58.18,2.24.53.66.35,1.16.86,1.52,1.52.35-.62.85-1.11,1.52-1.49.66-.37,1.38-.56,2.15-.56,1.31,0,2.37.4,3.18,1.21Z"/>
      <path class="cls-1" d="M183.27,151.51c.8.8,1.21,1.93,1.21,3.37v6.27h-2.7v-5.91c0-.84-.21-1.48-.64-1.92-.42-.44-1-.67-1.74-.67s-1.32.22-1.75.67c-.43.44-.65,1.08-.65,1.92v5.91h-2.7v-5.91c0-.84-.21-1.48-.64-1.92-.42-.44-1-.67-1.74-.67s-1.33.22-1.77.67c-.43.44-.65,1.08-.65,1.92v5.91h-2.7v-10.69h2.7v1.29c.35-.45.79-.8,1.34-1.06.55-.26,1.15-.39,1.8-.39.84,0,1.58.18,2.24.53.66.35,1.16.86,1.52,1.52.35-.62.85-1.11,1.52-1.49.66-.37,1.38-.56,2.15-.56,1.31,0,2.37.4,3.18,1.21Z"/>
      <path class="cls-1" d="M196.91,156.61h-7.82c.06.77.33,1.38.81,1.81.48.44,1.06.66,1.76.66,1,0,1.72-.43,2.14-1.29h2.91c-.31,1.03-.9,1.88-1.78,2.54-.88.66-1.95.99-3.22.99-1.03,0-1.95-.23-2.77-.69-.82-.46-1.45-1.1-1.91-1.94-.46-.84-.69-1.8-.69-2.9s.23-2.08.68-2.92c.45-.84,1.08-1.48,1.89-1.93.81-.45,1.74-.68,2.8-.68s1.93.22,2.73.66c.8.44,1.43,1.06,1.87,1.86.44.8.67,1.73.67,2.77,0,.39-.03.73-.08,1.04ZM194.19,154.8c-.01-.69-.26-1.25-.75-1.67-.49-.42-1.09-.63-1.79-.63-.67,0-1.23.2-1.69.61s-.74.97-.84,1.69h5.08Z"/>
      <path class="cls-1" d="M203.02,150.79c.56-.32,1.2-.48,1.92-.48v2.84h-.71c-.85,0-1.49.2-1.92.6-.43.4-.65,1.09-.65,2.08v5.33h-2.7v-10.69h2.7v1.66c.35-.57.8-1.01,1.36-1.33Z"/>
      <path class="cls-1" d="M213.46,160.8c-.75-.32-1.35-.78-1.79-1.39s-.66-1.32-.68-2.14h2.9c.04.55.24.99.59,1.31s.84.48,1.46.48,1.13-.15,1.49-.45c.36-.3.54-.7.54-1.19,0-.4-.12-.73-.37-.98-.25-.26-.55-.46-.92-.61-.37-.15-.87-.31-1.52-.49-.88-.26-1.59-.51-2.13-.76-.55-.25-1.02-.63-1.41-1.14-.39-.51-.59-1.19-.59-2.04,0-.8.2-1.49.6-2.08.4-.59.96-1.05,1.68-1.36s1.54-.47,2.47-.47c1.39,0,2.52.34,3.39,1.01.87.68,1.35,1.62,1.44,2.83h-2.97c-.03-.46-.22-.85-.59-1.15-.37-.3-.85-.45-1.46-.45-.53,0-.95.14-1.26.41-.32.27-.47.66-.47,1.18,0,.36.12.66.36.9s.53.43.89.58c.35.15.85.32,1.5.51.88.26,1.59.52,2.14.77.55.26,1.03.64,1.43,1.16.4.51.6,1.19.6,2.03,0,.72-.19,1.39-.56,2.01-.37.62-.92,1.11-1.64,1.48s-1.58.55-2.57.55c-.94,0-1.79-.16-2.54-.48Z"/>
      <path class="cls-1" d="M223.08,152.9c.45-.83,1.07-1.47,1.87-1.93.8-.46,1.71-.69,2.74-.69,1.33,0,2.42.33,3.29.99.87.66,1.45,1.59,1.75,2.79h-2.92c-.15-.46-.42-.83-.78-1.09-.37-.26-.82-.4-1.36-.4-.77,0-1.38.28-1.83.84-.45.56-.68,1.35-.68,2.38s.22,1.8.68,2.36c.45.56,1.06.84,1.83.84,1.09,0,1.81-.49,2.14-1.47h2.92c-.3,1.16-.88,2.08-1.76,2.76-.88.68-1.97,1.02-3.28,1.02-1.03,0-1.94-.23-2.74-.69-.8-.46-1.42-1.1-1.87-1.93s-.68-1.8-.68-2.91.23-2.08.68-2.91Z"/>
      <path class="cls-1" d="M242.91,150.83c.63.35,1.12.88,1.48,1.56.35.69.53,1.52.53,2.48v6.27h-2.7v-5.91c0-.85-.21-1.5-.64-1.96-.42-.46-1-.69-1.74-.69s-1.33.23-1.77.69c-.43.46-.65,1.11-.65,1.96v5.91h-2.7v-14.29h2.7v4.92c.35-.46.81-.83,1.39-1.09s1.22-.4,1.93-.4c.81,0,1.53.18,2.16.53Z"/>
      <path class="cls-1" d="M249.45,160.64c-.82-.46-1.47-1.1-1.94-1.94-.47-.84-.71-1.8-.71-2.9s.24-2.06.72-2.9c.48-.84,1.14-1.48,1.98-1.94.84-.46,1.77-.69,2.8-.69s1.96.23,2.8.69c.84.46,1.5,1.1,1.98,1.94s.72,1.8.72,2.9-.25,2.06-.74,2.9c-.5.84-1.16,1.48-2.01,1.94-.84.46-1.79.69-2.83.69s-1.96-.23-2.78-.69ZM253.61,158.61c.43-.24.78-.6,1.03-1.07.26-.48.39-1.06.39-1.74,0-1.02-.27-1.8-.8-2.35-.53-.55-1.19-.82-1.96-.82s-1.42.27-1.94.82c-.52.55-.78,1.33-.78,2.35s.25,1.8.76,2.35c.51.55,1.15.82,1.92.82.49,0,.95-.12,1.38-.36Z"/>
      <path class="cls-1" d="M261.77,160.64c-.82-.46-1.47-1.1-1.94-1.94-.47-.84-.71-1.8-.71-2.9s.24-2.06.72-2.9c.48-.84,1.14-1.48,1.98-1.94.84-.46,1.77-.69,2.8-.69s1.96.23,2.8.69c.84.46,1.5,1.1,1.98,1.94s.72,1.8.72,2.9-.25,2.06-.74,2.9c-.5.84-1.16,1.48-2.01,1.94-.84.46-1.79.69-2.83.69s-1.96-.23-2.78-.69ZM265.93,158.61c.43-.24.78-.6,1.03-1.07.26-.48.39-1.06.39-1.74,0-1.02-.27-1.8-.8-2.35-.53-.55-1.19-.82-1.96-.82s-1.42.27-1.94.82c-.52.55-.78,1.33-.78,2.35s.25,1.8.76,2.35c.51.55,1.15.82,1.92.82.49,0,.95-.12,1.38-.36Z"/>
      <path class="cls-1" d="M274.82,146.87v14.29h-2.7v-14.29h2.7Z"/>
    </g>
    <g>
      <path class="cls-3" d="M2.86,159.01h4.44v2.14H.16v-13.47h2.7v11.33Z"/>
      <path class="cls-3" d="M9.21,148.73c-.32-.3-.47-.68-.47-1.13s.16-.83.47-1.13.71-.45,1.19-.45.87.15,1.19.45.47.68.47,1.13-.16.83-.47,1.13c-.32.3-.71.45-1.19.45s-.87-.15-1.19-.45ZM11.72,150.46v10.69h-2.7v-10.69h2.7Z"/>
      <path class="cls-3" d="M23.4,151.51c.78.8,1.18,1.93,1.18,3.37v6.27h-2.7v-5.91c0-.85-.21-1.5-.64-1.96-.42-.46-1-.69-1.74-.69s-1.34.23-1.77.69c-.43.46-.65,1.11-.65,1.96v5.91h-2.7v-10.69h2.7v1.33c.36-.46.82-.83,1.38-1.09.56-.26,1.17-.4,1.84-.4,1.27,0,2.3.4,3.09,1.21Z"/>
      <path class="cls-3" d="M37.24,150.46v10.69h-2.72v-1.35c-.35.46-.8.83-1.36,1.09-.56.26-1.17.4-1.82.4-.84,0-1.58-.18-2.22-.53s-1.15-.88-1.52-1.56c-.37-.69-.55-1.51-.55-2.46v-6.27h2.7v5.89c0,.85.21,1.5.64,1.96.42.46,1,.69,1.74.69s1.33-.23,1.76-.69c.42-.46.64-1.11.64-1.96v-5.89h2.72Z"/>
      <path class="cls-3" d="M45.82,161.15l-2.2-3.32-1.95,3.32h-2.9l3.49-5.37-3.53-5.33h3.05l2.18,3.3,1.97-3.3h2.9l-3.51,5.33,3.55,5.37h-3.05Z"/>
      <path class="cls-3" d="M62.53,161.15l-4.9-6v6h-2.7v-13.47h2.7v6.04l4.9-6.04h3.26l-5.56,6.68,5.71,6.79h-3.42Z"/>
      <path class="cls-3" d="M77.59,156.61h-7.82c.06.77.33,1.38.81,1.81s1.06.66,1.76.66c1,0,1.72-.43,2.14-1.29h2.92c-.31,1.03-.9,1.88-1.78,2.54-.88.66-1.95.99-3.22.99-1.03,0-1.95-.23-2.77-.69-.82-.46-1.45-1.1-1.91-1.94-.46-.84-.69-1.8-.69-2.9s.22-2.08.68-2.92c.45-.84,1.08-1.48,1.89-1.93.81-.45,1.74-.68,2.8-.68s1.93.22,2.73.66c.8.44,1.43,1.06,1.87,1.86.44.8.67,1.73.67,2.77,0,.39-.03.73-.08,1.04ZM74.87,154.8c-.01-.69-.26-1.25-.75-1.67-.49-.42-1.09-.63-1.8-.63-.67,0-1.23.2-1.69.61-.46.41-.74.97-.84,1.69h5.08Z"/>
      <path class="cls-3" d="M83.7,150.79c.56-.32,1.2-.48,1.92-.48v2.84h-.71c-.85,0-1.49.2-1.92.6s-.65,1.09-.65,2.08v5.33h-2.7v-10.69h2.7v1.66c.35-.57.8-1.01,1.36-1.33Z"/>
      <path class="cls-3" d="M96.45,151.51c.78.8,1.18,1.93,1.18,3.37v6.27h-2.7v-5.91c0-.85-.21-1.5-.64-1.96-.42-.46-1-.69-1.74-.69s-1.34.23-1.77.69c-.43.46-.65,1.11-.65,1.96v5.91h-2.7v-10.69h2.7v1.33c.36-.46.82-.83,1.38-1.09.56-.26,1.17-.4,1.84-.4,1.27,0,2.3.4,3.09,1.21Z"/>
      <path class="cls-3" d="M110.06,156.61h-7.82c.06.77.33,1.38.81,1.81s1.06.66,1.76.66c1,0,1.72-.43,2.14-1.29h2.92c-.31,1.03-.9,1.88-1.78,2.54-.88.66-1.95.99-3.22.99-1.03,0-1.95-.23-2.77-.69-.82-.46-1.45-1.1-1.91-1.94-.46-.84-.69-1.8-.69-2.9s.22-2.08.68-2.92c.45-.84,1.08-1.48,1.89-1.93.81-.45,1.74-.68,2.8-.68s1.93.22,2.73.66c.8.44,1.43,1.06,1.87,1.86.44.8.67,1.73.67,2.77,0,.39-.03.73-.08,1.04ZM107.34,154.8c-.01-.69-.26-1.25-.75-1.67-.49-.42-1.09-.63-1.8-.63-.67,0-1.23.2-1.69.61-.46.41-.74.97-.84,1.69h5.08Z"/>
      <path class="cls-3" d="M114.81,146.87v14.29h-2.7v-14.29h2.7Z"/>
      <path class="cls-3" d="M124.18,160.8c-.75-.32-1.35-.78-1.79-1.39s-.66-1.32-.68-2.14h2.89c.04.55.24.99.59,1.31s.84.48,1.46.48,1.13-.15,1.49-.45c.36-.3.54-.7.54-1.19,0-.4-.12-.73-.37-.98-.24-.26-.55-.46-.92-.61-.37-.15-.87-.31-1.52-.49-.88-.26-1.59-.51-2.13-.76-.55-.25-1.02-.63-1.41-1.14s-.59-1.19-.59-2.04c0-.8.2-1.49.6-2.08.4-.59.96-1.05,1.68-1.36s1.54-.47,2.47-.47c1.39,0,2.52.34,3.39,1.01.87.68,1.35,1.62,1.44,2.83h-2.97c-.03-.46-.22-.85-.59-1.15-.37-.3-.85-.45-1.46-.45-.53,0-.95.14-1.26.41-.32.27-.47.66-.47,1.18,0,.36.12.66.36.9s.54.43.89.58.85.32,1.5.51c.88.26,1.59.52,2.14.77s1.03.64,1.43,1.16c.4.51.6,1.19.6,2.03,0,.72-.19,1.39-.56,2.01-.37.62-.92,1.11-1.64,1.48s-1.58.55-2.57.55-1.79-.16-2.54-.48Z"/>
      <path class="cls-3" d="M143.92,150.46v10.69h-2.72v-1.35c-.35.46-.8.83-1.36,1.09-.56.26-1.17.4-1.83.4-.84,0-1.58-.18-2.22-.53s-1.15-.88-1.52-1.56c-.37-.69-.55-1.51-.55-2.46v-6.27h2.7v5.89c0,.85.21,1.5.64,1.96.42.46,1,.69,1.74.69s1.33-.23,1.76-.69c.42-.46.64-1.11.64-1.96v-5.89h2.72Z"/>
      <path class="cls-3" d="M163.04,151.51c.8.8,1.21,1.93,1.21,3.37v6.27h-2.7v-5.91c0-.84-.21-1.48-.64-1.92-.42-.44-1-.67-1.74-.67s-1.32.22-1.75.67c-.43.44-.65,1.08-.65,1.92v5.91h-2.7v-5.91c0-.84-.21-1.48-.64-1.92-.42-.44-1-.67-1.74-.67s-1.33.22-1.77.67c-.43.44-.65,1.08-.65,1.92v5.91h-2.7v-10.69h2.7v1.29c.35-.45.79-.8,1.34-1.06.55-.26,1.15-.39,1.8-.39.84,0,1.58.18,2.24.53.66.35,1.16.86,1.52,1.52.35-.62.85-1.11,1.52-1.49.66-.37,1.38-.56,2.15-.56,1.31,0,2.37.4,3.18,1.21Z"/>
      <path class="cls-3" d="M183.27,151.51c.8.8,1.21,1.93,1.21,3.37v6.27h-2.7v-5.91c0-.84-.21-1.48-.64-1.92-.42-.44-1-.67-1.74-.67s-1.32.22-1.75.67c-.43.44-.65,1.08-.65,1.92v5.91h-2.7v-5.91c0-.84-.21-1.48-.64-1.92-.42-.44-1-.67-1.74-.67s-1.33.22-1.77.67c-.43.44-.65,1.08-.65,1.92v5.91h-2.7v-10.69h2.7v1.29c.35-.45.79-.8,1.34-1.06.55-.26,1.15-.39,1.8-.39.84,0,1.58.18,2.24.53.66.35,1.16.86,1.52,1.52.35-.62.85-1.11,1.52-1.49.66-.37,1.38-.56,2.15-.56,1.31,0,2.37.4,3.18,1.21Z"/>
      <path class="cls-3" d="M196.91,156.61h-7.82c.06.77.33,1.38.81,1.81.48.44,1.06.66,1.76.66,1,0,1.72-.43,2.14-1.29h2.91c-.31,1.03-.9,1.88-1.78,2.54-.88.66-1.95.99-3.22.99-1.03,0-1.95-.23-2.77-.69-.82-.46-1.45-1.1-1.91-1.94-.46-.84-.69-1.8-.69-2.9s.23-2.08.68-2.92c.45-.84,1.08-1.48,1.89-1.93.81-.45,1.74-.68,2.8-.68s1.93.22,2.73.66c.8.44,1.43,1.06,1.87,1.86.44.8.67,1.73.67,2.77,0,.39-.03.73-.08,1.04ZM194.19,154.8c-.01-.69-.26-1.25-.75-1.67-.49-.42-1.09-.63-1.79-.63-.67,0-1.23.2-1.69.61s-.74.97-.84,1.69h5.08Z"/>
      <path class="cls-3" d="M203.02,150.79c.56-.32,1.2-.48,1.92-.48v2.84h-.71c-.85,0-1.49.2-1.92.6-.43.4-.65,1.09-.65,2.08v5.33h-2.7v-10.69h2.7v1.66c.35-.57.8-1.01,1.36-1.33Z"/>
      <path class="cls-3" d="M213.46,160.8c-.75-.32-1.35-.78-1.79-1.39s-.66-1.32-.68-2.14h2.9c.04.55.24.99.59,1.31s.84.48,1.46.48,1.13-.15,1.49-.45c.36-.3.54-.7.54-1.19,0-.4-.12-.73-.37-.98-.25-.26-.55-.46-.92-.61-.37-.15-.87-.31-1.52-.49-.88-.26-1.59-.51-2.13-.76-.55-.25-1.02-.63-1.41-1.14-.39-.51-.59-1.19-.59-2.04,0-.8.2-1.49.6-2.08.4-.59.96-1.05,1.68-1.36s1.54-.47,2.47-.47c1.39,0,2.52.34,3.39,1.01.87.68,1.35,1.62,1.44,2.83h-2.97c-.03-.46-.22-.85-.59-1.15-.37-.3-.85-.45-1.46-.45-.53,0-.95.14-1.26.41-.32.27-.47.66-.47,1.18,0,.36.12.66.36.9s.53.43.89.58c.35.15.85.32,1.5.51.88.26,1.59.52,2.14.77.55.26,1.03.64,1.43,1.16.4.51.6,1.19.6,2.03,0,.72-.19,1.39-.56,2.01-.37.62-.92,1.11-1.64,1.48s-1.58.55-2.57.55c-.94,0-1.79-.16-2.54-.48Z"/>
      <path class="cls-3" d="M223.08,152.9c.45-.83,1.07-1.47,1.87-1.93.8-.46,1.71-.69,2.74-.69,1.33,0,2.42.33,3.29.99.87.66,1.45,1.59,1.75,2.79h-2.92c-.15-.46-.42-.83-.78-1.09-.37-.26-.82-.4-1.36-.4-.77,0-1.38.28-1.83.84-.45.56-.68,1.35-.68,2.38s.22,1.8.68,2.36c.45.56,1.06.84,1.83.84,1.09,0,1.81-.49,2.14-1.47h2.92c-.3,1.16-.88,2.08-1.76,2.76-.88.68-1.97,1.02-3.28,1.02-1.03,0-1.94-.23-2.74-.69-.8-.46-1.42-1.1-1.87-1.93s-.68-1.8-.68-2.91.23-2.08.68-2.91Z"/>
      <path class="cls-3" d="M242.91,150.83c.63.35,1.12.88,1.48,1.56.35.69.53,1.52.53,2.48v6.27h-2.7v-5.91c0-.85-.21-1.5-.64-1.96-.42-.46-1-.69-1.74-.69s-1.33.23-1.77.69c-.43.46-.65,1.11-.65,1.96v5.91h-2.7v-14.29h2.7v4.92c.35-.46.81-.83,1.39-1.09s1.22-.4,1.93-.4c.81,0,1.53.18,2.16.53Z"/>
      <path class="cls-3" d="M249.45,160.64c-.82-.46-1.47-1.1-1.94-1.94-.47-.84-.71-1.8-.71-2.9s.24-2.06.72-2.9c.48-.84,1.14-1.48,1.98-1.94.84-.46,1.77-.69,2.8-.69s1.96.23,2.8.69c.84.46,1.5,1.1,1.98,1.94s.72,1.8.72,2.9-.25,2.06-.74,2.9c-.5.84-1.16,1.48-2.01,1.94-.84.46-1.79.69-2.83.69s-1.96-.23-2.78-.69ZM253.61,158.61c.43-.24.78-.6,1.03-1.07.26-.48.39-1.06.39-1.74,0-1.02-.27-1.8-.8-2.35-.53-.55-1.19-.82-1.96-.82s-1.42.27-1.94.82c-.52.55-.78,1.33-.78,2.35s.25,1.8.76,2.35c.51.55,1.15.82,1.92.82.49,0,.95-.12,1.38-.36Z"/>
      <path class="cls-3" d="M261.77,160.64c-.82-.46-1.47-1.1-1.94-1.94-.47-.84-.71-1.8-.71-2.9s.24-2.06.72-2.9c.48-.84,1.14-1.48,1.98-1.94.84-.46,1.77-.69,2.8-.69s1.96.23,2.8.69c.84.46,1.5,1.1,1.98,1.94s.72,1.8.72,2.9-.25,2.06-.74,2.9c-.5.84-1.16,1.48-2.01,1.94-.84.46-1.79.69-2.83.69s-1.96-.23-2.78-.69ZM265.93,158.61c.43-.24.78-.6,1.03-1.07.26-.48.39-1.06.39-1.74,0-1.02-.27-1.8-.8-2.35-.53-.55-1.19-.82-1.96-.82s-1.42.27-1.94.82c-.52.55-.78,1.33-.78,2.35s.25,1.8.76,2.35c.51.55,1.15.82,1.92.82.49,0,.95-.12,1.38-.36Z"/>
      <path class="cls-3" d="M274.82,146.87v14.29h-2.7v-14.29h2.7Z"/>
    </g>
  </g>
</svg>